<svg xmlns="http://www.w3.org/2000/svg" version="1.1" xmlns:xlink="http://www.w3.org/1999/xlink" xmlns:svgjs="http://svgjs.dev/svgjs" width="1440" height="560" preserveAspectRatio="none" viewBox="0 0 1440 560"><g mask="url(&quot;#SvgjsMask1000&quot;)" fill="none"><rect width="1440" height="560" x="0" y="0" fill="#0e2a47"></rect><path d="M471.61 506.09 a11.7 11.7 0 1 0 23.4 0 a11.7 11.7 0 1 0 -23.4 0z" stroke="#037b0b"></path><path d="M606.11 395.3a11.46 11.46 0 1 0-15.57 16.82z" fill="#d3b714"></path><path d="M575.33 206.73L611.22 206.73L611.22 242.62L575.33 242.62z" fill="#d3b714"></path><path d="M1171.1 544.62 a47.45 47.45 0 1 0 94.9 0 a47.45 47.45 0 1 0 -94.9 0z" fill="#e73635"></path><path d="M364.95 191.79L374.69 191.79L374.69 201.53L364.95 201.53z" stroke="#e73635"></path><path d="M1437.87 58.41L1452.98 58.41L1452.98 94.35L1437.87 94.35z" fill="#e73635"></path><path d="M381.27 432.48a30.49 30.49 0 1 0 48.14-37.44z" stroke="#e73635"></path><path d="M1039.84 318.18L1047.59 318.18L1047.59 325.93L1039.84 325.93z" stroke="#e73635"></path><path d="M1375.16 395.28L1386.56 395.28L1386.56 439.96L1375.16 439.96z" stroke="#d3b714"></path><path d="M814.39 272.64L869.35 272.64L869.35 327.6L814.39 327.6z" fill="#037b0b"></path><path d="M1403.96 448.52 a2.16 2.16 0 1 0 4.32 0 a2.16 2.16 0 1 0 -4.32 0z" stroke="#d3b714"></path><path d="M523.28 209.66L525.86 209.66L525.86 232.5L523.28 232.5z" stroke="#037b0b"></path><path d="M1387.28 237.27 a35.46 35.46 0 1 0 70.92 0 a35.46 35.46 0 1 0 -70.92 0z" fill="#e73635"></path><path d="M1315.77 87.41 a12.87 12.87 0 1 0 25.74 0 a12.87 12.87 0 1 0 -25.74 0z" fill="#e73635"></path><path d="M945.47 576.13a52.99 52.99 0 1 0-88.4-58.46z" stroke="#d3b714"></path><path d="M896.92 266.04a37.06 37.06 0 1 0 7.82-73.71z" stroke="#037b0b"></path><path d="M1315.99 19.1 a28.14 28.14 0 1 0 56.28 0 a28.14 28.14 0 1 0 -56.28 0z" stroke="#e73635"></path><path d="M306.83 516.14L356.54 516.14L356.54 562.04L306.83 562.04z" fill="#d3b714"></path><path d="M733.1 512.61L747.79 512.61L747.79 561.52L733.1 561.52z" stroke="#037b0b"></path><path d="M966.85 357.15L1013.12 357.15L1013.12 378.75L966.85 378.75z" stroke="#d3b714"></path><path d="M1408.08 156.43 a22.72 22.72 0 1 0 45.44 0 a22.72 22.72 0 1 0 -45.44 0z" stroke="#e73635"></path><path d="M1372.08 4.21L1373.71 4.21L1373.71 17.57L1372.08 17.57z" fill="#d3b714"></path><path d="M370.55 100.62a29.86 29.86 0 1 0 20.54-56.08z" stroke="#e73635"></path><path d="M477.17 136.41L525.68 136.41L525.68 162.4L477.17 162.4z" stroke="#d3b714"></path><path d="M1158.17 217.43 a42.28 42.28 0 1 0 84.56 0 a42.28 42.28 0 1 0 -84.56 0z" fill="#037b0b"></path><path d="M1312.03 197.4L1315.9 197.4L1315.9 243.2L1312.03 243.2z" stroke="#e73635"></path><path d="M51.84 250.37 a42.22 42.22 0 1 0 84.44 0 a42.22 42.22 0 1 0 -84.44 0z" stroke="#d3b714"></path><path d="M799.18 391.28L815.47 391.28L815.47 420.02L799.18 420.02z" fill="#e73635"></path><path d="M1349.85 121.02 a52.09 52.09 0 1 0 104.18 0 a52.09 52.09 0 1 0 -104.18 0z" stroke="#d3b714"></path><path d="M1261.72 469.89L1298.16 469.89L1298.16 506.33L1261.72 506.33z" stroke="#e73635"></path><path d="M923.36 68.84 a50.51 50.51 0 1 0 101.02 0 a50.51 50.51 0 1 0 -101.02 0z" stroke="#e73635"></path><path d="M1350.03 413.57L1405.65 413.57L1405.65 431.5L1350.03 431.5z" fill="#d3b714"></path><path d="M488.61 354.1 a27.29 27.29 0 1 0 54.58 0 a27.29 27.29 0 1 0 -54.58 0z" stroke="#e73635"></path></g><defs><mask id="SvgjsMask1000"><rect width="1440" height="560" fill="#ffffff"></rect></mask></defs></svg>